<svg width="14" height="14" viewBox="0 0 14 14" fill="none" xmlns="http://www.w3.org/2000/svg">
<path d="M5.0544 0.0252018C3.25538 0.227822 1.71649 1.20807 0.796445 2.73319C0.418569 3.36022 0.185819 4.00094 0.0489073 4.77309C-0.0222867 5.18654 -0.014072 6.14214 0.0625985 6.56655C0.391186 8.36549 1.45362 9.81668 3.03906 10.6381C3.88791 11.0762 4.65735 11.2624 5.62669 11.2597C6.80686 11.2597 7.7762 10.9667 8.76196 10.315L9.08781 10.0987L10.9936 11.9962C12.2779 13.2777 12.9323 13.9129 13.0062 13.9485C13.1541 14.0169 13.4635 14.0169 13.5949 13.9485C13.9235 13.776 14.0741 13.42 13.9646 13.0805C13.9181 12.9409 13.8167 12.8313 12.0013 11.0132L10.0873 9.09382L10.2981 8.78168C11.314 7.28119 11.5385 5.40285 10.906 3.66415C10.7006 3.09462 10.3063 2.432 9.87916 1.9364C9.16722 1.11497 8.15955 0.47699 7.12724 0.200441C6.49744 0.0306778 5.64312 -0.043251 5.0544 0.0252018ZM6.03194 1.42164C7.07247 1.5339 7.88573 1.91997 8.6141 2.64831C9.35616 3.39034 9.75046 4.23368 9.84904 5.28511C9.93666 6.22428 9.68475 7.18262 9.12889 8.01775C8.89887 8.36549 8.3567 8.90763 8.00895 9.13763C6.60697 10.0713 4.87915 10.1206 3.45253 9.26632C2.42295 8.65299 1.69732 7.61798 1.4591 6.42143C1.37147 5.98333 1.37147 5.28785 1.4591 4.84975C1.70554 3.61486 2.46403 2.56343 3.55932 1.94188C4.29043 1.52569 5.21321 1.33128 6.03194 1.42164Z" fill="#AEB7B5"/>
</svg>
