<svg width="17" height="16" viewBox="0 0 17 16" fill="none" xmlns="http://www.w3.org/2000/svg">
<path d="M8.21933 0.0490131C8.15946 0.0748882 8.08087 0.130336 8.04719 0.167301C8.01351 0.207963 7.46715 1.27625 6.83471 2.54785C6.20227 3.81945 5.67462 4.86926 5.65965 4.88404C5.64842 4.89513 4.4584 5.07626 3.01764 5.28327C1.15027 5.54941 0.364402 5.6751 0.285816 5.72315C0.0350864 5.86731 -0.0771804 6.24066 0.0575397 6.49572C0.0874775 6.55117 0.865861 7.32374 1.79019 8.2109C2.71078 9.09806 3.564 9.92238 3.68376 10.0407L3.89706 10.2588L3.448 12.8463C2.97648 15.5669 2.98022 15.5411 3.12991 15.7666C3.22346 15.907 3.47045 16.0142 3.65756 15.992C3.76983 15.981 4.46214 15.6409 6.13866 14.7685C7.4185 14.1068 8.48129 13.5634 8.50374 13.5634C8.52245 13.5634 9.5815 14.1031 10.8539 14.7648C12.1262 15.4265 13.2189 15.9773 13.2826 15.9883C13.4697 16.0253 13.653 15.9736 13.7915 15.8442C14.0422 15.6113 14.0497 15.7185 13.552 12.8426L13.1029 10.2588L13.2788 10.0776C13.3799 9.97783 14.2293 9.15351 15.1761 8.24786C16.1192 7.33852 16.9125 6.55117 16.9425 6.49572C17.0772 6.24066 16.9649 5.86731 16.7142 5.71945C16.6319 5.6751 15.8759 5.55311 13.9824 5.27957C12.5416 5.07626 11.3516 4.89513 11.3403 4.88035C11.3254 4.86926 10.7977 3.81945 10.1653 2.54785C9.53285 1.27625 8.98649 0.207963 8.95281 0.167301C8.81435 0.00835133 8.45135 -0.0507927 8.21933 0.0490131Z" fill="white"/>
</svg>
