<svg width="19" height="19" viewBox="0 0 19 19" fill="none" xmlns="http://www.w3.org/2000/svg">
<path d="M10.3537 18.9661C11.4859 18.8584 12.7517 18.4983 13.7316 18.0045C14.745 17.4921 15.8066 16.6827 16.5342 15.8659C17.9595 14.262 18.7687 12.4093 18.9655 10.3004C19.1177 8.64451 18.7613 6.77697 18.0004 5.26958C17.4881 4.25598 16.6789 3.19412 15.8623 2.46641C14.2587 1.04069 12.4065 0.231302 10.2981 0.0345231C8.64254 -0.117702 6.77543 0.238727 5.26837 0.999851C4.25501 1.51222 3.19339 2.32161 2.46585 3.13843C1.04046 4.74236 0.23125 6.59504 0.0345165 8.70392C-0.117673 10.3598 0.238675 12.2274 0.999625 13.7348C1.51187 14.7484 2.32108 15.8102 3.13771 16.5379C4.74127 17.9636 6.59354 18.773 8.70193 18.9698C9.16592 19.0107 9.88975 19.0107 10.3537 18.9661ZM3.93207 9.50217L3.93207 8.38833L9.5 8.38833L15.0679 8.38833L15.0679 9.50217L15.0679 10.616L9.5 10.616L3.93207 10.616L3.93207 9.50217Z" fill="#C75D30"/>
</svg>
